HIERARCHY
ROOT Hips
{
	OFFSET 0.00000 0.00000 0.00000
	CHANNELS 6 Xposition Yposition Zposition Zrotation Yrotation Xrotation 
	JOINT LHipJoint
	{
		OFFSET 0 0 0
		CHANNELS 3 Zrotation Yrotation Xrotation
		JOINT LeftHip
		{
			OFFSET 1.41496 -1.84582 0.78394
			CHANNELS 3 Zrotation Yrotation Xrotation
			JOINT LeftKnee
			{
				OFFSET 2.58040 -7.08960 0.00000
				CHANNELS 3 Zrotation Yrotation Xrotation
				JOINT LeftAnkle
				{
					OFFSET 2.64719 -7.27309 0.00000
					CHANNELS 3 Zrotation Yrotation Xrotation
					JOINT LeftToe
					{
						OFFSET 0.20718 -0.56921 2.20259
						CHANNELS 3 Zrotation Yrotation Xrotation
						End Site
						{
							OFFSET 0.00000 -0.00000 1.14243
						}
					}
				}
			}
		}
	}
	JOINT RHipJoint
	{
		OFFSET 0 0 0
		CHANNELS 3 Zrotation Yrotation Xrotation
		JOINT RightHip
		{
			OFFSET -1.40551 -1.84582 0.78394
			CHANNELS 3 Zrotation Yrotation Xrotation
			JOINT RightKnee
			{
				OFFSET -2.56572 -7.04926 0.00000
				CHANNELS 3 Zrotation Yrotation Xrotation
				JOINT RightAnkle
				{
					OFFSET -2.57974 -7.08778 0.00000
					CHANNELS 3 Zrotation Yrotation Xrotation
					JOINT RightToe
					{
						OFFSET -0.26704 -0.73369 2.20815
						CHANNELS 3 Zrotation Yrotation Xrotation
						End Site
						{
							OFFSET -0.00000 -0.00000 1.16246
						}
					}
				}
			}
		}
	}
	JOINT lowerback
	{
		OFFSET 0 0 0
		CHANNELS 3 Zrotation Yrotation Xrotation
		JOINT Chest
		{
			OFFSET -0.04690 2.05196 -0.07017
			CHANNELS 3 Zrotation Yrotation Xrotation
			JOINT Chest2
			{
				OFFSET 0.04085 2.05260 0.00800
				CHANNELS 3 Zrotation Yrotation Xrotation
				JOINT lowerneck
				{
					OFFSET 0 0 0
					CHANNELS 3 Zrotation Yrotation Xrotation
					JOINT Neck
					{
						OFFSET -0.03582 1.80995 0.19301
						CHANNELS 3 Zrotation Yrotation Xrotation
						JOINT Head
						{
							OFFSET 0.00952 1.80195 -0.36389
							CHANNELS 3 Zrotation Yrotation Xrotation
							End Site
							{
								OFFSET 0.00392 1.85062 -0.14494
							}
						}
					}
				}
				JOINT LeftCollar
				{
					OFFSET 0 0 0
					CHANNELS 3 Zrotation Yrotation Xrotation
					JOINT LeftShoulder
					{
						OFFSET 3.55224 1.39726 -0.13667
CHANNELS 3 Zrotation Xrotation Yrotation
						JOINT LeftElbow
						{
OFFSET 0 -5.145070 -0.000000
CHANNELS 3 Zrotation Xrotation Yrotation
							JOINT LeftWrist
							{
OFFSET 0 -3.506460 0.000000
CHANNELS 3 Zrotation Xrotation Yrotation
								JOINT lhand
								{
									OFFSET 0 0 0
CHANNELS 3 Zrotation Xrotation Yrotation
									JOINT LFingers
									{
OFFSET 0 -0.629970 0.000000
CHANNELS 3 Zrotation Xrotation Yrotation
										End Site
										{
OFFSET 0 -0.507900 0.000000
										}
									}
								}
								JOINT LThumb
								{
OFFSET 0 0.000000 0.000000
CHANNELS 3 Zrotation Xrotation Yrotation
									End Site
									{
OFFSET 0 -0.515650 0.515650
									}
								}
							}
						}
					}
				}
				JOINT RightCollar
				{
					OFFSET 0 0 0
					CHANNELS 3 Zrotation Yrotation Xrotation
					JOINT RightShoulder
					{
						OFFSET -3.06467 1.61290 -0.28813
CHANNELS 3 Zrotation Xrotation Yrotation
						JOINT RightElbow
						{
OFFSET 0 -5.232000 -0.000000
CHANNELS 3 Zrotation Xrotation Yrotation
							JOINT RightWrist
							{
OFFSET 0 -3.656410 0.000000
CHANNELS 3 Zrotation Xrotation Yrotation
								JOINT rhand
								{
									OFFSET 0 0 0
CHANNELS 3 Zrotation Xrotation Yrotation
									JOINT RFingers
									{
OFFSET 0 -0.656810 0.000000
CHANNELS 3 Zrotation Xrotation Yrotation
										End Site
										{
OFFSET 0 -0.529530 0.000000
										}
									}
								}
								JOINT RThumb
								{
OFFSET 0 0.000000 0.000000
CHANNELS 3 Zrotation Xrotation Yrotation
									End Site
									{
OFFSET 0 -0.537620 0.537620
									}
								}
							}
						}
					}
				}
			}
		}
	}
}
MOTION
Frames: 5
Frame Time: 0.008333333333333333
1.894600 17.910400 -4.330500 1.093400 2.605800 6.199700 0.000000 0.000000 0.000000 -13.036400 -7.617100 -10.831900 2.665500 10.132800 29.407900 0.900000 4.404500 -20.036200 0.266600 -3.321800 -9.176000 0.000000 0.000000 0.000000 8.899600 2.488600 -8.965700 -2.028900 -8.926000 25.564100 -0.598200 -10.924200 -22.378500 -0.008400 -0.591500 1.625400 -3.361300 -0.718300 -2.636900 0.600900 -0.898500 -2.519900 2.485900 -0.395400 -1.048600 -4.905500 -3.725300 -21.897100 4.832200 -4.572100 16.113600 1.817400 -1.920300 8.864300 0.000000 0.000000 0.000000 73.675400 2.417700 26.618800 12.552300 -20.627800 2.293200 15.073700 23.741600 -11.971100 0.000000 0.000000 0.000000 -7.125000 0.000000 0.000000 -10.875400 42.109400 -0.785800 0.000000 0.000000 0.000000 -74.198600 9.001600 -25.815700 -12.444000 -20.467200 -2.255200 -21.930500 14.523200 16.723500 0.000000 0.000000 0.000000 7.125000 0.000000 -0.000000 5.705900 47.844500 -0.401700
1.901460 17.910306 -4.325895 1.110013 2.594804 6.193240 0.000000 0.000000 0.000000 -13.084113 -7.579140 -10.824990 2.670398 10.141235 29.435448 0.902594 4.387636 -20.050244 0.266956 -3.323646 -9.181183 0.000000 0.000000 0.000000 8.858539 2.470683 -8.925546 -2.022733 -8.913273 25.524363 -0.595394 -10.928050 -22.356155 -0.008200 -0.583063 1.602184 -3.386325 -0.699869 -2.636738 0.589347 -0.873615 -2.518909 2.488547 -0.382730 -1.049126 -4.942225 -3.720118 -21.831384 4.845664 -4.560191 16.132654 1.830409 -1.916565 8.860154 0.000000 0.000000 0.000000 73.697848 2.400805 26.783972 12.530121 -20.594888 2.285305 15.098592 23.993346 -12.008196 0.000000 0.000000 0.000000 -7.125000 0.000000 0.000000 -10.861931 42.149268 -0.773995 0.000000 0.000000 0.000000 -74.250922 9.157746 -25.678085 -12.463571 -20.496179 -2.261960 -21.850456 14.377456 16.906950 0.000000 0.000000 0.000000 7.125000 0.000000 0.000000 5.825381 48.026348 -0.436327
1.907172 17.910500 -4.321103 1.107006 2.558976 6.194675 0.000000 0.000000 0.000000 -13.110763 -7.571363 -10.813547 2.674335 10.148283 29.458110 0.903375 4.423173 -20.079204 0.266076 -3.318506 -9.166729 0.000000 0.000000 0.000000 8.842343 2.498325 -8.884454 -2.016192 -8.899722 25.482129 -0.593776 -10.934169 -22.347205 -0.008300 -0.588697 1.617742 -3.395786 -0.678252 -2.637714 0.584527 -0.844856 -2.532189 2.489438 -0.367760 -1.064212 -4.935522 -3.705549 -21.782024 4.824629 -4.542663 16.189165 1.825143 -1.910705 8.869451 0.000000 0.000000 0.000000 73.725207 2.449685 26.803063 12.533731 -20.600289 2.286635 15.072249 23.994526 -12.058649 0.000000 0.000000 0.000000 -7.125000 0.000000 0.000000 -10.896654 42.197776 -0.763249 0.000000 0.000000 0.000000 -74.304042 9.265441 -25.654365 -12.452178 -20.479366 -2.257963 -21.825258 14.472860 16.961247 0.000000 0.000000 0.000000 7.125000 0.000000 0.000000 5.862407 48.079871 -0.446892
1.911834 17.910600 -4.316324 1.095361 2.511754 6.189633 0.000000 0.000000 0.000000 -13.125425 -7.564580 -10.791494 2.678091 10.154800 29.479525 0.904324 4.460954 -20.111164 0.264495 -3.308571 -9.139061 0.000000 0.000000 0.000000 8.839052 2.543169 -8.832945 -2.009419 -8.885656 25.438283 -0.591914 -10.946858 -22.342385 -0.008400 -0.590233 1.621962 -3.397848 -0.656127 -2.630914 0.583338 -0.815865 -2.546320 2.490205 -0.352671 -1.084482 -4.916184 -3.684670 -21.763223 4.798794 -4.519365 16.279696 1.816890 -1.901309 8.895035 0.000000 0.000000 0.000000 73.749677 2.532905 26.718183 12.558149 -20.636422 2.295239 15.027131 23.872177 -12.219821 0.000000 0.000000 0.000000 -7.125000 0.000000 0.000000 -10.973386 42.356292 -0.725297 0.000000 0.000000 0.000000 -74.352850 9.386182 -25.469908 -12.467473 -20.502068 -2.263386 -21.793088 14.460640 17.055505 0.000000 0.000000 0.000000 7.125000 0.000000 0.000000 5.915823 48.174377 -0.464806
1.915695 17.910425 -4.311681 1.086333 2.458245 6.177793 0.000000 0.000000 0.000000 -13.139904 -7.543509 -10.760867 2.680648 10.159221 29.493986 0.905398 4.490940 -20.139765 0.263202 -3.300560 -9.116802 0.000000 0.000000 0.000000 8.834560 2.580986 -8.785478 -2.004430 -8.875385 25.406206 -0.590676 -10.949906 -22.334115 -0.008051 -0.580369 1.594802 -3.403713 -0.634776 -2.628248 0.582078 -0.787460 -2.555540 2.492795 -0.338018 -1.097439 -4.890858 -3.664875 -21.751148 4.778345 -4.500446 16.375157 1.808784 -1.892785 8.923691 0.000000 0.000000 0.000000 73.772895 2.647372 26.545902 12.597150 -20.694152 2.309007 14.967883 23.698885 -12.446118 0.000000 0.000000 0.000000 -7.125000 0.000000 0.000000 -11.078386 42.578998 -0.670693 0.000000 0.000000 0.000000 -74.388962 9.480778 -25.283795 -12.492070 -20.538480 -2.271989 -21.713344 14.367461 17.148916 0.000000 0.000000 0.000000 7.125000 0.000000 0.000000 6.014610 48.260828 -0.485449
